# Blender v2.72 (sub 0) OBJ File: ''
# www.blender.org
mtllib beardie.mtl
o chr_beardo1_Plane-tex
v -0.050000 0.450000 -0.250000
v -0.050000 0.350000 -0.350000
v -0.050000 0.350000 -0.250000
v -0.050000 0.450000 -0.350000
v 0.150000 0.950000 -0.250000
v 0.150000 0.850000 -0.350000
v 0.150000 0.850000 -0.250000
v 0.150000 0.950000 -0.350000
v 0.150000 0.150000 0.150000
v 0.150000 0.050000 0.050000
v 0.150000 0.050000 0.150000
v 0.150000 0.150000 -0.150000
v 0.150000 0.050000 -0.050000
v 0.150000 -0.050000 -0.050000
v 0.150000 0.050000 -0.150000
v 0.150000 -0.050000 0.050000
v -0.150000 1.050000 0.250000
v -0.150000 0.950000 0.150000
v -0.150000 0.950000 0.250000
v -0.150000 1.050000 0.150000
v -0.150000 0.950000 0.350000
v -0.150000 0.650000 0.250000
v -0.150000 0.650000 0.350000
v -0.150000 0.550000 0.150000
v -0.150000 0.550000 0.250000
v -0.150000 0.650000 0.150000
v -0.150000 0.550000 -0.250000
v -0.150000 0.450000 -0.350000
v -0.150000 0.450000 -0.250000
v -0.150000 0.550000 -0.350000
v -0.150000 0.050000 0.050000
v -0.150000 -0.050000 -0.050000
v -0.150000 -0.050000 0.050000
v -0.150000 0.050000 -0.050000
v 0.250000 0.850000 -0.150000
v 0.250000 0.750000 -0.250000
v 0.250000 0.750000 -0.150000
v 0.250000 0.850000 -0.250000
v -0.250000 1.050000 0.150000
v -0.250000 0.950000 -0.150000
v -0.250000 0.950000 0.150000
v -0.250000 1.050000 -0.150000
v -0.250000 0.850000 -0.250000
v -0.250000 0.750000 -0.150000
v -0.250000 0.750000 -0.250000
v -0.250000 0.950000 -0.350000
v -0.250000 0.850000 -0.350000
v -0.250000 0.950000 0.250000
v -0.250000 0.650000 0.150000
v -0.250000 0.650000 0.250000
v -0.250000 0.550000 0.050000
v -0.250000 0.550000 0.150000
v -0.250000 0.150000 0.050000
v -0.250000 0.650000 -0.150000
v -0.250000 0.150000 0.150000
v -0.250000 0.550000 -0.050000
v -0.250000 0.050000 0.150000
v -0.250000 0.550000 0.250000
v -0.250000 0.650000 -0.250000
v -0.250000 0.050000 -0.150000
v -0.250000 0.150000 0.250000
v -0.250000 0.150000 -0.250000
v -0.250000 0.150000 -0.050000
v -0.250000 0.150000 -0.150000
v -0.350000 0.950000 0.150000
v -0.350000 0.650000 -0.150000
v -0.350000 0.650000 0.150000
v -0.350000 0.950000 -0.150000
v -0.350000 0.550000 0.050000
v -0.350000 0.150000 -0.050000
v -0.350000 0.150000 0.050000
v -0.350000 0.550000 -0.050000
v 0.150000 0.450000 -0.250000
v 0.150000 0.350000 -0.350000
v 0.150000 0.350000 -0.250000
v 0.150000 0.450000 -0.350000
v -0.050000 0.950000 -0.250000
v -0.050000 0.850000 -0.350000
v -0.050000 0.850000 -0.250000
v -0.050000 0.950000 -0.350000
v -0.050000 0.150000 0.150000
v -0.050000 0.050000 0.050000
v -0.050000 0.050000 0.150000
v -0.050000 0.150000 -0.150000
v -0.050000 0.050000 -0.050000
v -0.050000 -0.050000 -0.050000
v -0.050000 0.050000 -0.150000
v -0.050000 -0.050000 0.050000
v 0.250000 1.050000 0.250000
v 0.250000 0.950000 0.150000
v 0.250000 0.950000 0.250000
v 0.250000 1.050000 0.150000
v 0.250000 0.950000 0.350000
v 0.250000 0.650000 0.250000
v 0.250000 0.650000 0.350000
v 0.250000 0.550000 0.150000
v 0.250000 0.550000 0.250000
v 0.250000 0.650000 0.150000
v 0.250000 0.550000 -0.250000
v 0.250000 0.450000 -0.350000
v 0.250000 0.450000 -0.250000
v 0.250000 0.550000 -0.350000
v 0.250000 0.050000 0.050000
v 0.250000 -0.050000 -0.050000
v 0.250000 -0.050000 0.050000
v 0.250000 0.050000 -0.050000
v 0.350000 1.050000 0.150000
v 0.350000 0.950000 -0.150000
v 0.350000 0.950000 0.150000
v 0.350000 1.050000 -0.150000
v 0.350000 0.850000 -0.250000
v 0.350000 0.750000 -0.150000
v 0.350000 0.750000 -0.250000
v 0.350000 0.950000 -0.350000
v 0.350000 0.850000 -0.350000
v 0.350000 0.950000 0.250000
v 0.350000 0.650000 0.150000
v 0.350000 0.650000 0.250000
v 0.350000 0.550000 0.050000
v 0.350000 0.550000 0.150000
v 0.350000 0.150000 0.050000
v 0.350000 0.650000 -0.150000
v 0.350000 0.150000 0.150000
v 0.350000 0.550000 -0.050000
v 0.350000 0.050000 0.150000
v 0.350000 0.550000 0.250000
v 0.350000 0.650000 -0.250000
v 0.350000 0.050000 -0.150000
v 0.350000 0.150000 0.250000
v 0.350000 0.150000 -0.250000
v 0.350000 0.150000 -0.050000
v 0.350000 0.150000 -0.150000
v -0.150000 0.850000 -0.150000
v -0.150000 0.750000 -0.250000
v -0.150000 0.750000 -0.150000
v -0.150000 0.850000 -0.250000
v 0.450000 0.950000 0.150000
v 0.450000 0.650000 -0.150000
v 0.450000 0.650000 0.150000
v 0.450000 0.950000 -0.150000
v 0.450000 0.550000 0.050000
v 0.450000 0.150000 -0.050000
v 0.450000 0.150000 0.050000
v 0.450000 0.550000 -0.050000
vt 0.625088 0.571530
vt 0.687456 0.714084
vt 0.687456 0.571530
vt 0.625044 0.571631
vt 0.625044 0.714185
vt 0.687412 0.714185
vt 0.875088 0.571530
vt 0.937456 0.714084
vt 0.937456 0.571530
vt 0.875037 0.571543
vt 0.875037 0.714143
vt 0.937425 0.619076
vt 0.875125 0.714071
vt 0.937438 0.642857
vt 0.937438 0.571643
vt 0.875088 0.714185
vt 0.937456 0.714185
vt 0.937456 0.571631
vt 0.625088 0.142958
vt 0.687456 0.285512
vt 0.687456 0.142958
vt 0.625044 0.143059
vt 0.625044 0.285613
vt 0.687412 0.285613
vt 0.656250 0.714127
vt 0.687448 0.571508
vt 0.625088 0.714185
vt 0.687456 0.714185
vt 0.687456 0.571631
vt 0.625035 0.571547
vt 0.687431 0.642857
vt 0.812544 0.143059
vt 0.812544 0.285613
vt 0.895745 0.285613
vt 0.625037 0.142971
vt 0.687425 0.190505
vt 0.812588 0.142958
vt 0.895789 0.285512
vt 0.895789 0.142958
vt 0.625125 0.285500
vt 0.687438 0.214286
vt 0.687438 0.143071
vt 0.937412 0.571530
vt 0.687375 0.286036
vt 0.625063 0.428571
vt 0.625063 0.571107
vt 0.875075 0.619076
vt 0.833275 0.571317
vt 0.750019 0.285937
vt 0.729206 0.571317
vt 0.875063 0.571643
vt 0.875063 0.642857
vt 0.937375 0.714071
vt 0.895771 0.214286
vt 0.812625 0.143071
vt 0.875044 0.571631
vt 0.875044 0.714185
vt 0.937412 0.714185
vt 0.250053 0.856991
vt 0.437394 0.642933
vt 0.250053 0.642933
vt 0.812412 0.142958
vt 0.729211 0.285512
vt 0.729211 0.142958
vt 0.729255 0.285613
vt 0.906250 0.714127
vt 0.906250 0.571587
vt 0.895846 0.714114
vt 0.937406 0.571714
vt 0.937406 0.714000
vt 0.895846 0.571600
vt 0.437609 0.571498
vt 0.624945 0.714147
vt 0.624945 0.571498
vt 0.437555 0.714216
vt 0.624891 0.714216
vt 0.437555 0.571567
vt 0.625044 0.714084
vt 0.656250 0.571587
vt 0.640645 0.714107
vt 0.666647 0.714150
vt 0.687421 0.571700
vt 0.062588 0.714387
vt 0.124956 0.856941
vt 0.124956 0.714387
vt 0.062544 0.714488
vt 0.062544 0.857042
vt 0.124912 0.857042
vt 0.645846 0.714114
vt 0.625094 0.714143
vt 0.625069 0.642857
vt 0.635444 0.571615
vt 0.674968 0.571551
vt 0.625096 0.571551
vt 0.687436 0.714041
vt 0.895793 0.285606
vt 0.812581 0.261843
vt 0.812554 0.285494
vt 0.812554 0.171502
vt 0.895726 0.143004
vt 0.812544 0.285512
vt 0.812544 0.142958
vt 0.687425 0.619076
vt 0.312537 0.285600
vt 0.250066 0.142914
vt 0.624897 0.142914
vt 0.374951 0.285627
vt 0.125148 0.285627
vt 0.437401 0.143033
vt 0.687456 0.285613
vt 0.625088 0.285613
vt 0.687456 0.143059
vt 0.625075 0.619076
vt 0.812593 0.238072
vt 0.937453 0.285619
vt 0.937453 0.142976
vt 0.812563 0.214286
vt 0.812563 0.285571
vt 0.937375 0.143000
vt 0.906172 0.285571
vt 0.843766 0.143000
vt 0.843766 0.285571
vt 0.906172 0.143000
vt 0.124956 0.857042
vt 0.062588 0.857042
vt 0.124956 0.714488
vt 0.729218 0.714203
vt 0.833275 0.714203
vt 0.770841 0.571595
vt 0.729218 0.571512
vt 0.770841 0.714120
vt 0.833275 0.571512
vt 0.187500 0.714429
vt 0.249859 0.856857
vt 0.125141 0.714429
vt 0.187500 0.857000
vt 0.125141 0.857000
vt 0.249859 0.714571
vt 0.640645 0.571607
vt 0.666647 0.571564
vn -1.000000 0.000000 0.000000
vn 1.000000 0.000000 0.000000
vn 0.000000 -1.000000 0.000000
vn 0.000000 1.000000 0.000000
vn 0.000000 0.000000 1.000000
vn 0.000000 0.000000 -1.000000
usemtl lambert0
s off
f 1/1/1 2/2/1 3/3/1
f 1/4/1 4/5/1 2/6/1
f 5/1/1 6/2/1 7/3/1
f 5/4/1 8/5/1 6/6/1
f 9/7/1 10/8/1 11/9/1
f 9/10/1 12/11/1 10/12/1
f 12/13/1 13/14/1 10/15/1
f 10/4/1 13/5/1 14/6/1
f 12/16/1 15/17/1 13/18/1
f 10/1/1 14/2/1 16/3/1
f 17/1/1 18/2/1 19/3/1
f 17/4/1 20/5/1 18/6/1
f 21/1/1 22/2/1 23/3/1
f 21/4/1 19/5/1 22/6/1
f 22/19/1 24/20/1 25/21/1
f 22/22/1 26/23/1 24/24/1
f 27/1/1 28/2/1 29/3/1
f 27/4/1 30/5/1 28/6/1
f 31/1/1 32/2/1 33/3/1
f 31/4/1 34/5/1 32/6/1
f 35/1/1 36/2/1 37/3/1
f 35/4/1 38/5/1 36/6/1
f 39/1/1 40/2/1 41/3/1
f 39/4/1 42/5/1 40/6/1
f 40/1/1 43/25/1 44/26/1
f 43/27/1 45/28/1 44/29/1
f 40/30/1 46/5/1 43/31/1
f 46/27/1 47/28/1 43/29/1
f 48/1/1 49/2/1 50/3/1
f 48/4/1 41/5/1 49/6/1
f 49/19/1 51/20/1 52/21/1
f 52/32/1 51/33/1 53/34/1
f 49/35/1 54/23/1 51/36/1
f 52/37/1 53/38/1 55/39/1
f 54/40/1 56/41/1 51/42/1
f 57/43/1 55/10/1 53/11/1
f 58/32/1 52/33/1 55/34/1
f 56/44/1 54/45/1 59/46/1
f 57/9/1 53/47/1 60/8/1
f 58/37/1 55/38/1 61/39/1
f 62/48/1 56/49/1 59/50/1
f 53/51/1 63/52/1 60/53/1
f 64/54/1 56/55/1 62/38/1
f 63/56/1 64/57/1 60/58/1
f 56/37/1 64/38/1 63/39/1
f 65/59/1 66/60/1 67/61/1
f 65/4/1 68/5/1 66/6/1
f 69/62/1 70/63/1 71/64/1
f 69/32/1 72/33/1 70/65/1
f 74/2/2 73/1/2 75/3/2
f 76/5/2 73/4/2 74/6/2
f 78/2/2 77/1/2 79/3/2
f 80/5/2 77/4/2 78/6/2
f 82/8/2 81/7/2 83/9/2
f 84/11/2 81/10/2 82/12/2
f 85/14/2 84/13/2 82/15/2
f 85/5/2 82/4/2 86/6/2
f 87/17/2 84/16/2 85/18/2
f 86/2/2 82/1/2 88/3/2
f 90/2/2 89/1/2 91/3/2
f 92/5/2 89/4/2 90/6/2
f 94/2/2 93/1/2 95/3/2
f 91/5/2 93/4/2 94/6/2
f 96/20/2 94/19/2 97/21/2
f 98/23/2 94/22/2 96/24/2
f 100/2/2 99/1/2 101/3/2
f 102/5/2 99/4/2 100/6/2
f 104/2/2 103/1/2 105/3/2
f 106/5/2 103/4/2 104/6/2
f 108/2/2 107/1/2 109/3/2
f 110/5/2 107/4/2 108/6/2
f 111/25/2 108/1/2 112/26/2
f 113/28/2 111/27/2 112/29/2
f 114/5/2 108/30/2 111/31/2
f 115/28/2 114/27/2 111/29/2
f 117/2/2 116/1/2 118/3/2
f 109/5/2 116/4/2 117/6/2
f 119/20/2 117/19/2 120/21/2
f 119/33/2 120/32/2 121/34/2
f 122/23/2 117/35/2 119/36/2
f 121/38/2 120/37/2 123/39/2
f 124/41/2 122/40/2 119/42/2
f 123/10/2 125/43/2 121/11/2
f 120/33/2 126/32/2 123/34/2
f 122/45/2 124/44/2 127/46/2
f 121/47/2 125/9/2 128/8/2
f 123/38/2 126/37/2 129/39/2
f 124/49/2 130/48/2 127/50/2
f 131/52/2 121/51/2 128/53/2
f 124/55/2 132/54/2 130/38/2
f 132/57/2 131/56/2 128/58/2
f 132/38/2 124/37/2 131/39/2
f 134/2/2 133/1/2 135/3/2
f 136/5/2 133/4/2 134/6/2
f 138/60/2 137/59/2 139/61/2
f 140/5/2 137/4/2 138/6/2
f 142/63/2 141/62/2 143/64/2
f 144/33/2 141/32/2 142/65/2
f 103/66/3 125/7/3 11/43/3
f 10/17/3 103/16/3 11/18/3
f 128/11/3 125/10/3 103/12/3
f 106/14/3 128/13/3 103/15/3
f 128/16/3 106/67/3 15/58/3
f 15/8/3 106/7/3 13/9/3
f 31/66/3 83/7/3 57/43/3
f 60/8/3 31/47/3 57/9/3
f 82/57/3 83/56/3 31/58/3
f 34/52/3 31/51/3 60/53/3
f 34/67/3 60/58/3 87/16/3
f 85/10/3 34/43/3 87/11/3
f 14/2/3 105/1/3 16/3/3
f 104/5/3 105/4/3 14/6/3
f 32/2/3 88/1/3 33/3/3
f 86/5/3 88/4/3 32/6/3
f 131/20/3 143/19/3 121/21/3
f 142/23/3 143/22/3 131/24/3
f 9/68/3 129/10/3 61/43/3
f 81/66/3 9/13/3 61/69/3
f 123/57/3 129/56/3 9/58/3
f 55/17/3 81/16/3 61/18/3
f 84/8/3 9/7/3 81/9/3
f 12/57/3 9/56/3 84/58/3
f 12/51/3 84/67/3 62/70/3
f 12/71/3 62/58/3 130/57/3
f 62/8/3 84/7/3 64/9/3
f 132/10/3 12/43/3 130/11/3
f 70/20/3 53/19/3 71/21/3
f 63/23/3 53/22/3 70/24/3
f 2/2/3 75/1/3 3/3/3
f 74/5/3 75/4/3 2/6/3
f 76/2/3 101/1/3 73/3/3
f 100/5/3 101/4/3 76/6/3
f 28/2/3 1/1/3 29/3/3
f 4/5/3 1/4/3 28/6/3
f 122/72/3 139/73/3 117/74/3
f 138/75/3 139/76/3 122/77/3
f 98/2/3 118/1/3 94/3/3
f 117/5/3 118/4/3 98/6/3
f 22/2/3 95/1/3 23/3/3
f 94/5/3 95/4/3 22/6/3
f 49/2/3 22/1/3 50/3/3
f 26/5/3 22/4/3 49/6/3
f 66/72/3 49/73/3 67/74/3
f 54/75/3 49/76/3 66/77/3
f 36/2/3 112/1/3 37/3/3
f 113/5/3 112/4/3 36/6/3
f 45/2/3 135/1/3 44/3/3
f 134/5/3 135/4/3 45/6/3
f 111/30/3 38/26/3 115/78/3
f 38/79/3 6/6/3 115/27/3
f 6/2/3 38/1/3 7/3/3
f 38/5/3 35/4/3 7/6/3
f 7/80/3 35/30/3 133/26/3
f 79/81/3 7/27/3 133/82/3
f 136/28/3 79/27/3 133/29/3
f 79/30/3 136/26/3 78/78/3
f 136/79/3 47/6/3 78/27/3
f 47/2/3 136/1/3 43/3/3
f 141/83/4 124/84/4 119/85/4
f 141/86/4 144/87/4 124/88/4
f 126/83/4 96/84/4 97/85/4
f 126/86/4 120/87/4 96/88/4
f 99/1/4 30/2/4 27/3/4
f 99/4/4 102/5/4 30/6/4
f 25/83/4 52/84/4 58/85/4
f 25/86/4 24/87/4 52/88/4
f 51/83/4 72/84/4 69/85/4
f 51/86/4 56/87/4 72/88/4
f 122/1/4 59/2/4 54/3/4
f 122/4/4 127/5/4 59/6/4
f 137/1/4 108/2/4 109/3/4
f 137/4/4 140/5/4 108/6/4
f 108/1/4 5/89/4 40/26/4
f 5/90/4 77/25/4 40/82/4
f 108/30/4 114/5/4 5/31/4
f 77/91/4 46/28/4 40/3/4
f 114/27/4 8/28/4 5/29/4
f 77/4/4 80/5/4 46/6/4
f 116/1/4 90/2/4 91/3/4
f 116/4/4 109/5/4 90/6/4
f 93/1/4 19/2/4 21/3/4
f 93/4/4 91/5/4 19/6/4
f 19/1/4 41/2/4 48/3/4
f 19/4/4 18/5/4 41/6/4
f 41/1/4 68/2/4 65/3/4
f 41/4/4 40/5/4 68/6/4
f 92/26/4 107/30/4 110/78/4
f 42/6/4 92/92/4 110/5/4
f 20/93/4 92/94/4 42/95/4
f 20/1/4 42/2/4 39/3/4
f 89/4/4 92/5/4 20/6/4
f 89/1/4 20/2/4 17/3/4
f 143/63/5 119/62/5 121/64/5
f 143/65/5 141/33/5 119/32/5
f 105/1/5 10/2/5 16/3/5
f 105/4/5 103/5/5 10/6/5
f 88/1/5 31/2/5 33/3/5
f 88/4/5 82/5/5 31/6/5
f 53/63/5 69/62/5 71/64/5
f 53/65/5 51/33/5 69/32/5
f 139/1/5 109/2/5 117/3/5
f 139/4/5 137/5/5 109/6/5
f 109/1/5 92/2/5 90/3/5
f 109/4/5 107/5/5 92/6/5
f 120/19/5 98/20/5 96/21/5
f 120/22/5 117/23/5 98/24/5
f 125/7/5 9/8/5 11/9/5
f 125/56/5 123/57/5 9/58/5
f 83/7/5 55/8/5 57/9/5
f 83/56/5 81/57/5 55/58/5
f 18/1/5 39/2/5 41/3/5
f 18/4/5 20/5/5 39/6/5
f 24/19/5 49/20/5 52/21/5
f 24/22/5 26/23/5 49/24/5
f 49/1/5 65/2/5 67/3/5
f 49/4/5 41/5/5 65/6/5
f 129/96/5 97/97/5 61/39/5
f 97/98/5 25/99/5 61/100/5
f 129/34/5 126/33/5 97/32/5
f 25/101/5 58/102/5 61/100/5
f 97/19/5 22/20/5 25/21/5
f 97/22/5 94/23/5 22/24/5
f 118/1/5 91/2/5 94/3/5
f 118/4/5 116/5/5 91/6/5
f 91/1/5 17/2/5 19/3/5
f 91/4/5 89/5/5 17/6/5
f 22/1/5 48/2/5 50/3/5
f 22/4/5 19/5/5 48/6/5
f 95/1/5 21/2/5 23/3/5
f 95/4/5 93/5/5 21/6/5
f 124/62/6 142/63/6 131/64/6
f 144/33/6 142/65/6 124/32/6
f 13/2/6 104/1/6 14/3/6
f 106/5/6 104/4/6 13/6/6
f 34/2/6 86/1/6 32/3/6
f 85/5/6 86/4/6 34/6/6
f 72/62/6 63/63/6 70/64/6
f 56/33/6 63/65/6 72/32/6
f 112/2/6 138/1/6 122/3/6
f 112/23/6 122/22/6 37/24/6
f 140/78/6 138/30/6 112/103/6
f 37/104/6 122/105/6 54/106/6
f 108/28/6 140/27/6 112/29/6
f 135/107/6 37/108/6 54/109/6
f 44/110/6 135/111/6 54/112/6
f 133/20/6 37/19/6 135/21/6
f 54/30/6 66/26/6 44/78/6
f 35/23/6 37/22/6 133/24/6
f 44/113/6 66/3/6 68/2/6
f 40/5/6 44/4/6 68/6/6
f 42/2/6 108/1/6 40/3/6
f 110/5/6 108/4/6 42/6/6
f 12/8/6 128/7/6 15/9/6
f 132/57/6 128/56/6 12/58/6
f 64/8/6 87/7/6 60/9/6
f 84/57/6 87/56/6 64/58/6
f 75/114/6 130/115/6 62/116/6
f 3/117/6 75/118/6 62/119/6
f 101/117/6 130/120/6 75/121/6
f 29/117/6 3/122/6 62/123/6
f 73/124/6 101/125/6 75/126/6
f 127/127/6 130/128/6 101/129/6
f 59/130/6 29/131/6 62/132/6
f 1/87/6 3/86/6 29/88/6
f 99/133/6 127/134/6 101/135/6
f 27/136/6 29/137/6 59/138/6
f 127/5/6 99/92/6 59/6/6
f 99/94/6 27/93/6 59/95/6
f 38/2/6 113/1/6 36/3/6
f 111/5/6 113/4/6 38/6/6
f 77/2/6 7/1/6 79/3/6
f 5/5/6 7/4/6 77/6/6
f 43/2/6 134/1/6 45/3/6
f 136/5/6 134/4/6 43/6/6
f 8/2/6 115/1/6 6/3/6
f 114/5/6 115/4/6 8/6/6
f 100/30/6 76/26/6 102/78/6
f 76/139/6 30/6/6 102/5/6
f 76/94/6 4/140/6 30/95/6
f 30/2/6 4/1/6 28/3/6
f 76/5/6 74/4/6 4/6/6
f 4/2/6 74/1/6 2/3/6
f 46/2/6 78/1/6 47/3/6
f 80/5/6 78/4/6 46/6/6
